<?xml version="1.0" standalone="no"?>
<!DOCTYPE svg PUBLIC "-//W3C//DTD SVG 20010904//EN"
 "http://www.w3.org/TR/2001/REC-SVG-20010904/DTD/svg10.dtd">
<svg version="1.0" xmlns="http://www.w3.org/2000/svg"
 width="700.000000pt" height="700.000000pt" viewBox="0 0 700.000000 700.000000"
 preserveAspectRatio="xMidYMid meet">
<metadata>
Created by potrace 1.11, written by Peter Selinger 2001-2013
</metadata>
<g transform="translate(0.000000,700.000000) scale(0.100000,-0.100000)"
fill="#000000" stroke="none">
<path d="M3357 6934 c-1 -1 -47 -5 -102 -8 -55 -3 -111 -8 -125 -10 -14 -3
-47 -7 -75 -10 -46 -5 -184 -28 -247 -41 -61 -11 -79 -15 -103 -20 -62 -13
-281 -80 -380 -116 -331 -121 -624 -281 -910 -499 -60 -46 -115 -88 -121 -94
-6 -6 -41 -37 -77 -69 -495 -435 -877 -1058 -1037 -1686 -40 -159 -58 -239
-66 -297 -3 -27 -8 -58 -11 -69 -2 -11 -6 -47 -9 -80 -3 -33 -7 -66 -10 -74
-21 -65 -21 -620 0 -741 3 -14 10 -61 16 -106 6 -44 13 -91 15 -105 8 -39 15
-72 20 -104 81 -444 316 -969 613 -1364 171 -229 410 -476 608 -631 119 -93
392 -280 409 -280 4 0 19 -8 33 -19 47 -33 282 -148 402 -196 168 -68 406
-144 535 -171 61 -12 175 -34 205 -38 19 -3 46 -8 60 -10 197 -37 678 -42 920
-11 52 7 182 27 205 31 11 2 31 6 45 9 29 6 230 54 245 59 6 1 30 8 55 15 45
13 192 63 286 99 283 106 672 333 900 524 188 157 298 266 484 478 36 40 163
210 207 275 281 419 483 934 547 1395 21 153 25 195 33 315 11 181 5 487 -11
585 -3 14 -7 52 -11 85 -25 240 -140 659 -241 883 -13 29 -24 55 -24 58 0 4
-29 63 -64 133 -408 812 -1083 1408 -1946 1716 -132 48 -351 106 -485 130 -84
15 -149 25 -200 31 -33 3 -68 8 -78 10 -56 10 -500 26 -510 18z"/>
</g>
</svg>
